<svg width="24" height="40" viewBox="0 0 24 40" fill="none" xmlns="http://www.w3.org/2000/svg">
<g id="Type=Big">
<path id="icon/content/link_24px" fill-rule="evenodd" clip-rule="evenodd" d="M10.5858 25.1213L12.7071 23C13.096 22.6111 13.7324 22.6111 14.1213 23C14.5102 23.3889 14.5102 24.0253 14.1213 24.4142L12 26.5355C10.0484 28.4871 6.88052 28.4871 4.92891 26.5355C2.97729 24.5839 2.97729 21.4161 4.92891 19.4645L7.05023 17.3431C7.43913 16.9542 8.07553 16.9542 8.46444 17.3431C8.85335 17.7321 8.85335 18.3685 8.46444 18.7574L6.34312 20.8787C5.17639 22.0454 5.17639 23.9546 6.34312 25.1213C7.50985 26.288 9.41903 26.288 10.5858 25.1213ZM12 12.3934L9.87865 14.5147C9.48974 14.9036 9.48974 15.54 9.87865 15.9289C10.2676 16.3178 10.904 16.3178 11.2929 15.9289L13.4142 13.8076C14.5809 12.6409 16.4901 12.6409 17.6568 13.8076C18.8236 14.9743 18.8236 16.8835 17.6568 18.0503L15.5355 20.1716C15.1466 20.5605 15.1466 21.1969 15.5355 21.5858C15.9244 21.9747 16.5608 21.9747 16.9497 21.5858L19.071 19.4645C21.0227 17.5129 21.0227 14.345 19.071 12.3934C17.1194 10.4418 13.9516 10.4418 12 12.3934ZM9.17155 22.2929C9.56045 22.6818 10.1969 22.6818 10.5858 22.2929L14.8284 18.0503C15.2173 17.6613 15.2173 17.0249 14.8284 16.636C14.4395 16.2471 13.8031 16.2471 13.4142 16.636L9.17155 20.8787C8.78264 21.2676 8.78264 21.904 9.17155 22.2929Z" fill="#1424FB"/>
</g>
</svg>
