<svg width="24" height="44" viewBox="0 0 24 44" fill="none" xmlns="http://www.w3.org/2000/svg">
<g id="Type=Big">
<path id="icon/content/link_24px" fill-rule="evenodd" clip-rule="evenodd" d="M10.5858 27.1213L12.7071 25C13.096 24.6111 13.7324 24.6111 14.1213 25C14.5102 25.3889 14.5102 26.0253 14.1213 26.4142L12 28.5355C10.0484 30.4871 6.88052 30.4871 4.92891 28.5355C2.97729 26.5839 2.97729 23.4161 4.92891 21.4645L7.05023 19.3431C7.43913 18.9542 8.07553 18.9542 8.46444 19.3431C8.85335 19.7321 8.85335 20.3685 8.46444 20.7574L6.34312 22.8787C5.17639 24.0454 5.17639 25.9546 6.34312 27.1213C7.50985 28.288 9.41903 28.288 10.5858 27.1213ZM12 14.3934L9.87865 16.5147C9.48974 16.9036 9.48974 17.54 9.87865 17.9289C10.2676 18.3178 10.904 18.3178 11.2929 17.9289L13.4142 15.8076C14.5809 14.6409 16.4901 14.6409 17.6568 15.8076C18.8236 16.9743 18.8236 18.8835 17.6568 20.0503L15.5355 22.1716C15.1466 22.5605 15.1466 23.1969 15.5355 23.5858C15.9244 23.9747 16.5608 23.9747 16.9497 23.5858L19.071 21.4645C21.0227 19.5129 21.0227 16.345 19.071 14.3934C17.1194 12.4418 13.9516 12.4418 12 14.3934ZM9.17155 24.2929C9.56045 24.6818 10.1969 24.6818 10.5858 24.2929L14.8284 20.0503C15.2173 19.6613 15.2173 19.0249 14.8284 18.636C14.4395 18.2471 13.8031 18.2471 13.4142 18.636L9.17155 22.8787C8.78264 23.2676 8.78264 23.904 9.17155 24.2929Z" fill="#1424FB"/>
</g>
</svg>
