<svg width="20" height="20" viewBox="0 0 20 20" fill="none" xmlns="http://www.w3.org/2000/svg">
<path fill-rule="evenodd" clip-rule="evenodd" d="M9.01005 13.9598L10.495 12.4749C10.7672 12.2026 11.2127 12.2026 11.4849 12.4749C11.7572 12.7471 11.7572 13.1926 11.4849 13.4648L10 14.9497C8.63387 16.3159 6.41638 16.3159 5.05025 14.9497C3.68412 13.5836 3.68412 11.3661 5.05025 9.99999L6.53518 8.51507C6.80741 8.24283 7.25289 8.24283 7.52513 8.51507C7.79736 8.78731 7.79736 9.23278 7.52513 9.50502L6.0402 10.9899C5.22349 11.8067 5.22349 13.1431 6.0402 13.9598C6.85691 14.7765 8.19334 14.7765 9.01005 13.9598ZM10.0001 5.05026L8.51514 6.53518C8.24291 6.80742 8.24291 7.25289 8.51514 7.52513C8.78738 7.79737 9.23286 7.79737 9.50509 7.52513L10.99 6.0402C11.8067 5.2235 13.1432 5.2235 13.9599 6.0402C14.7766 6.85691 14.7766 8.19334 13.9599 9.01005L12.4749 10.495C12.2027 10.7672 12.2027 11.2127 12.4749 11.4849C12.7472 11.7572 13.1927 11.7572 13.4649 11.4849L14.9498 10C16.3159 8.63387 16.3159 6.41639 14.9498 5.05026C13.5837 3.68412 11.3662 3.68412 10.0001 5.05026ZM8.02014 11.9799C8.29237 12.2521 8.73785 12.2521 9.01009 11.9799L11.9799 9.01002C12.2522 8.73779 12.2522 8.29231 11.9799 8.02007C11.7077 7.74784 11.2622 7.74784 10.99 8.02007L8.02014 10.9899C7.7479 11.2622 7.7479 11.7076 8.02014 11.9799Z" fill="#1424FB"/>
</svg>
