<svg width="20" height="20" viewBox="0 0 20 20" fill="none" xmlns="http://www.w3.org/2000/svg">
<path fill-rule="evenodd" clip-rule="evenodd" d="M9.59619 13.0607L10.6569 12C10.8513 11.8055 11.1695 11.8055 11.364 12C11.5584 12.1945 11.5584 12.5127 11.364 12.7071L10.3033 13.7678C9.32749 14.7436 7.74357 14.7436 6.76777 13.7678C5.79196 12.792 5.79196 11.208 6.76777 10.2322L7.82843 9.17157C8.02288 8.97712 8.34108 8.97712 8.53553 9.17157C8.72999 9.36603 8.72999 9.68423 8.53553 9.87868L7.47487 10.9393C6.89151 11.5227 6.89151 12.4773 7.47487 13.0607C8.05824 13.644 9.01283 13.644 9.59619 13.0607ZM10.3033 6.69671L9.24268 7.75737C9.04823 7.95182 9.04823 8.27002 9.24268 8.46448C9.43714 8.65893 9.75534 8.65893 9.94979 8.46448L11.0105 7.40382C11.5938 6.82045 12.5484 6.82045 13.1318 7.40382C13.7151 7.98718 13.7151 8.94177 13.1318 9.52514L12.0711 10.5858C11.8767 10.7803 11.8767 11.0984 12.0711 11.2929C12.2656 11.4874 12.5838 11.4874 12.7782 11.2929L13.8389 10.2322C14.8147 9.25644 14.8147 7.67252 13.8389 6.69671C12.8631 5.7209 11.2792 5.7209 10.3033 6.69671ZM8.88911 11.6465C9.08356 11.8409 9.40176 11.8409 9.59621 11.6465L11.7175 9.52513C11.912 9.33068 11.912 9.01248 11.7175 8.81803C11.5231 8.62357 11.2049 8.62357 11.0104 8.81803L8.88911 10.9393C8.69465 11.1338 8.69465 11.452 8.88911 11.6465Z" fill="#1424FB"/>
</svg>
